<svg width="40" height="40" viewBox="0 0 40 40" fill="none" xmlns="http://www.w3.org/2000/svg">
<path d="M7.83508 0C3.5264 0 0 3.52632 0 7.83508V32.1487C0 36.4574 3.52632 39.9825 7.83508 39.9825H32.1487C36.4574 39.9825 39.9825 36.4574 39.9825 32.1487V7.83508C39.9825 3.5264 36.4574 0 32.1487 0H7.83508ZM9.80572 6.59792C11.8716 6.59792 13.1442 7.95416 13.1834 9.73692C13.1834 11.4803 11.8716 12.8747 9.76576 12.8747H9.727C7.7004 12.8747 6.39052 11.4804 6.39052 9.73692C6.39052 7.9542 7.74008 6.59792 9.80572 6.59792ZM27.6089 14.9303C31.5821 14.9303 34.5605 17.5272 34.5605 23.1078V33.5257H28.5224V23.8062C28.5224 21.3638 27.6485 19.6975 25.4634 19.6975C23.7952 19.6975 22.8009 20.8206 22.3643 21.9056C22.2048 22.2938 22.1656 22.8359 22.1656 23.3789V33.5257H16.1275C16.1275 33.5257 16.2068 17.0612 16.1275 15.3564H22.1669V17.9294C22.9693 16.6914 24.4046 14.9303 27.6089 14.9303ZM6.74668 15.3577H12.7848V33.5258H6.74668V15.3577Z" fill="white"/>
</svg>
