<svg width="448" height="457" viewBox="0 0 448 457" fill="none" xmlns="http://www.w3.org/2000/svg">
<g clip-path="url(#clip0)">
<path opacity="0.15" d="M65.8667 332.285C102.244 332.285 131.733 315.29 131.733 294.326C131.733 273.362 102.244 256.368 65.8667 256.368C29.4895 256.368 0 273.362 0 294.326C0 315.29 29.4895 332.285 65.8667 332.285Z" fill="#D6D8E5"/>
<path opacity="0.5" d="M65.1067 311.436C85.3966 311.436 101.845 301.959 101.845 290.268C101.845 278.577 85.3966 269.1 65.1067 269.1C44.8168 269.1 28.3686 278.577 28.3686 290.268C28.3686 301.959 44.8168 311.436 65.1067 311.436Z" fill="#EDEFF9"/>
<path d="M64.7587 288.797C70.5443 288.797 75.2344 286.092 75.2344 282.755C75.2344 279.418 70.5443 276.714 64.7587 276.714C58.9732 276.714 54.2831 279.418 54.2831 282.755C54.2831 286.092 58.9732 288.797 64.7587 288.797Z" fill="#EDEFF9"/>
<path d="M75.1795 202.661H55.0339V281.686H75.1795V202.661Z" fill="#EDEFF9"/>
<path d="M54.0724 201.766C54.0724 201.766 54.6219 218.016 66.2055 247.164C66.2055 247.164 76.9926 223.692 78.1097 201.272C79.2269 178.852 54.0724 201.766 54.0724 201.766Z" fill="#FFBC00"/>
<path d="M39.9248 140.582L13.1221 166.613L9.93541 200.605L42.3514 184.381L48.2486 142.922L39.9248 140.582Z" fill="#8C50FF"/>
<path d="M92.4863 140.582L119.28 166.613L122.476 200.605L89.9406 183.257L84.1625 142.922L92.4863 140.582Z" fill="#8C50FF"/>
<path d="M65.8667 205.869C73.2251 205.869 79.1903 202.432 79.1903 198.192C79.1903 193.952 73.2251 190.514 65.8667 190.514C58.5084 190.514 52.5432 193.952 52.5432 198.192C52.5432 202.432 58.5084 205.869 65.8667 205.869Z" fill="#424956"/>
<path d="M45.6663 190.514V183.604H86.0214V190.77L45.6663 190.514Z" fill="#494949"/>
<path d="M65.8667 202.149C77.0231 202.149 86.0672 196.936 86.0672 190.505C86.0672 184.074 77.0231 178.861 65.8667 178.861C54.7103 178.861 45.6663 184.074 45.6663 190.505C45.6663 196.936 54.7103 202.149 65.8667 202.149Z" fill="#2B303F"/>
<path d="M65.8026 194.225C79.4169 194.225 90.4534 187.866 90.4534 180.021C90.4534 172.177 79.4169 165.818 65.8026 165.818C52.1884 165.818 41.1518 172.177 41.1518 180.021C41.1518 187.866 52.1884 194.225 65.8026 194.225Z" fill="#EDEFF9"/>
<path d="M92.4222 154.722C92.4222 155.864 92.4222 156.989 92.4222 158.076C92.4222 158.99 92.4222 159.904 92.4222 160.818C92.4222 162.052 92.3581 163.231 92.3123 164.383C92.3123 165.818 92.2116 167.18 92.1383 168.487C92.0651 169.794 92.001 171.073 91.9094 172.252C91.534 177.417 91.5431 181.219 90.9021 182.709C87.4133 190.852 75.6098 186.365 69.786 183.44C67.634 182.361 66.2147 181.475 66.2147 181.475H65.6836C65.6836 181.475 63.9987 182.389 61.508 183.376C55.4002 185.844 44.5125 190.222 41.4906 182.681C40.9504 181.328 40.4101 176.859 40.0805 172.179C39.998 171.009 39.9248 169.757 39.8515 168.423C39.7783 167.088 39.7416 165.763 39.6867 164.328C39.6867 163.186 39.6226 162.007 39.5951 160.782C39.5951 159.868 39.5951 158.954 39.5951 158.04V154.685C39.4303 122.796 42.8184 71.8038 54.0083 50.0415C57.2408 43.744 61.1234 39.8961 65.766 39.6676H66.2971C70.8756 39.9052 74.804 43.7349 78.0456 50.0049C89.0799 71.685 92.6237 122.476 92.4222 154.722Z" fill="#EDEFF9"/>
<path d="M65.9308 124.651C71.0741 124.651 75.2436 120.49 75.2436 115.356C75.2436 110.222 71.0741 106.061 65.9308 106.061C60.7876 106.061 56.6181 110.222 56.6181 115.356C56.6181 120.49 60.7876 124.651 65.9308 124.651Z" fill="#2B303F"/>
<path d="M65.9308 126.013C63.8191 126.013 61.7548 125.388 59.9989 124.217C58.2431 123.046 56.8746 121.382 56.0664 119.434C55.2583 117.487 55.0469 115.344 55.4589 113.277C55.8708 111.209 56.8877 109.311 58.381 107.82C59.8742 106.33 61.7767 105.315 63.8478 104.903C65.919 104.492 68.0658 104.703 70.0168 105.51C71.9678 106.317 73.6353 107.682 74.8085 109.435C75.9818 111.188 76.608 113.248 76.608 115.356C76.6055 118.182 75.4799 120.891 73.478 122.889C71.4762 124.887 68.7618 126.011 65.9308 126.013ZM65.9308 107.422C64.3584 107.421 62.8208 107.884 61.5125 108.755C60.2042 109.626 59.184 110.864 58.581 112.314C57.978 113.763 57.8193 115.359 58.125 116.898C58.4306 118.438 59.1869 119.852 60.2981 120.963C61.4093 122.073 62.8256 122.829 64.3677 123.136C65.9097 123.443 67.5083 123.287 68.9612 122.686C70.4142 122.086 71.656 121.069 72.5298 119.764C73.4036 118.46 73.87 116.925 73.87 115.356C73.8676 113.254 73.0307 111.239 71.5426 109.752C70.0545 108.265 68.0365 107.427 65.9308 107.422Z" fill="#424956"/>
<path d="M65.9308 97.3227C71.0741 97.3227 75.2436 93.161 75.2436 88.0273C75.2436 82.8936 71.0741 78.7319 65.9308 78.7319C60.7876 78.7319 56.6181 82.8936 56.6181 88.0273C56.6181 93.161 60.7876 97.3227 65.9308 97.3227Z" fill="#2B303F"/>
<path d="M65.9308 98.712C63.8177 98.7138 61.7514 98.0902 59.9933 96.9201C58.2351 95.75 56.864 94.0858 56.0532 92.138C55.2425 90.1902 55.0285 88.0462 55.4383 85.977C55.8481 83.9079 56.8633 82.0064 58.3556 80.5131C59.8479 79.0197 61.7503 78.0015 63.8223 77.5871C65.8943 77.1727 68.0428 77.3808 69.9963 78.1851C71.9499 78.9893 73.6206 80.3536 74.7975 82.1055C75.9743 83.8573 76.6043 85.9181 76.608 88.0273C76.6104 90.8571 75.4871 93.572 73.4851 95.5755C71.483 97.579 68.7659 98.7072 65.9308 98.712ZM65.9308 80.1212C64.358 80.1194 62.82 80.5834 61.5115 81.4545C60.203 82.3255 59.1829 83.5645 58.5801 85.0145C57.9774 86.4645 57.8192 88.0605 58.1256 89.6003C58.432 91.1401 59.1892 92.5545 60.3014 93.6646C61.4135 94.7747 62.8306 95.5305 64.3733 95.8363C65.916 96.1421 67.5149 95.9842 68.9676 95.3826C70.4203 94.781 71.6616 93.7628 72.5343 92.4567C73.407 91.1506 73.8718 89.6155 73.87 88.0456C73.8712 87.0038 73.6668 85.9719 73.2685 85.0089C72.8701 84.0459 72.2857 83.1706 71.5485 82.4331C70.8112 81.6956 69.9357 81.1102 68.9718 80.7104C68.008 80.3106 66.9746 80.1042 65.9308 80.103V80.1212Z" fill="#424956"/>
<path d="M92.4222 173.102C92.4222 174.245 92.4222 175.369 92.4222 176.466C91.5065 179.482 89.0158 182.37 84.9684 184.692C74.4744 190.733 57.4972 190.733 46.9574 184.692C42.91 182.352 40.4284 179.455 39.5036 176.466V173.112C40.4193 176.183 42.8917 179.107 46.994 181.475C57.4972 187.516 74.511 187.516 85.005 181.475C89.0249 179.08 91.5706 176.164 92.4222 173.102Z" fill="#8C50FF"/>
<path d="M92.3398 178.422C92.3398 179.647 92.2757 180.835 92.2299 181.977C91.2043 184.829 88.7685 187.544 84.9043 189.756C74.4103 195.806 57.4331 195.806 46.8933 189.756C43.0382 187.525 40.6024 184.793 39.5677 181.923C39.5677 180.78 39.5036 179.601 39.4761 178.385C40.3918 181.365 42.8917 184.198 46.8842 186.502C57.3873 192.552 74.4011 192.552 84.8951 186.502C88.9059 184.208 91.3783 181.383 92.3398 178.422Z" fill="#8C50FF"/>
<path d="M92.0559 168.98C90.9479 171.658 88.5671 174.208 84.9317 176.292C74.4377 182.334 57.4606 182.334 46.9208 176.292C43.258 174.172 40.8771 171.613 39.7691 168.907C39.8424 170.242 39.9156 171.494 39.998 172.664C41.1793 175.186 43.4869 177.563 46.9208 179.546C51.3997 181.982 56.3413 183.452 61.4256 183.86C64.1653 184.126 66.9234 184.148 69.6669 183.924C75.0015 183.587 80.1984 182.093 84.8951 179.546C88.3015 177.581 90.6 175.232 91.7904 172.737L92.0559 168.98Z" fill="#8C50FF"/>
<path d="M77.8808 50.0232C70.0487 52.4227 61.6756 52.4227 53.8435 50.0232C57.0759 43.7257 60.9585 39.8778 65.6012 39.6493H66.1323C70.7566 39.9235 74.6392 43.7531 77.8808 50.0232Z" fill="#8C50FF"/>
<path d="M68.4857 140.655H63.9163V200.532H68.4857V140.655Z" fill="#8C50FF"/>
<path opacity="0.4" d="M285.151 349.312L232.04 318.703C228.203 316.491 228.688 312.634 233.111 310.084L267.523 290.259L334.507 328.857L300.095 348.691C295.663 351.241 288.978 351.515 285.151 349.312Z" fill="#D6D8E5"/>
<path d="M289.024 347.037L235.913 316.418C232.086 314.215 232.562 310.358 236.985 307.808L271.406 287.983L338.39 326.581L304.014 346.406C299.546 348.965 292.852 349.239 289.024 347.037Z" fill="#B1B4C4"/>
<path d="M338.381 326.581V324.561L335.286 326.344L338.381 326.581Z" fill="#B1B4C4"/>
<path d="M233.322 312.771V310.714L236.499 312.031L233.322 312.771Z" fill="#B1B4C4"/>
<path d="M289.024 345.008L235.913 314.398C232.086 312.186 232.562 308.338 236.985 305.788L271.406 285.954L338.39 324.561L304.014 344.386C299.546 346.936 292.852 347.219 289.024 345.008Z" fill="#D6D8E5"/>
<path d="M271.571 286.045L263.284 258.589L331 297.361L338.381 324.561L271.571 286.045Z" fill="#9EA1AF"/>
<path d="M336.421 325.686L338.381 324.561L335.46 322.231L336.421 325.686Z" fill="#9EA1AF"/>
<path d="M269.437 287.078L261.15 259.622L328.867 298.394L336.412 325.686L269.437 287.078Z" fill="#B1B4C4"/>
<path d="M441.37 371.998L179.213 220.905C175.55 218.784 172.556 213.099 172.556 208.209V5.82216C172.556 0.92312 175.541 -1.32532 179.213 0.795161L441.37 151.852C445.033 153.972 448.027 159.658 448.027 164.547V366.934C448 371.824 445.033 374.073 441.37 371.998Z" fill="#C4C7D6"/>
<path d="M442.689 374.045L445.592 372.373L444.337 363.781L442.689 374.045Z" fill="#C4C7D6"/>
<path d="M172.089 2.0482L174.946 0.39386L179.057 2.74284C179.057 2.74284 174.68 3.41006 174.57 3.38264C174.46 3.35522 172.089 2.0482 172.089 2.0482Z" fill="#B1B4C4"/>
<path d="M438.935 373.342L176.814 222.285C173.151 220.164 170.156 214.488 170.156 209.589V7.2023C170.156 2.3124 173.133 0.0639627 176.814 2.18444L438.935 153.241C442.597 155.362 445.592 161.047 445.592 165.937V368.342C445.592 373.214 442.616 375.462 438.935 373.342Z" fill="#E4E7F2"/>
<path d="M438.477 373.607L176.347 222.55C172.684 220.429 169.689 214.744 169.689 209.854V7.46738C169.689 2.57748 172.675 0.329038 176.347 2.44952L438.477 153.552C442.139 155.663 445.134 161.348 445.134 166.247V368.58C445.134 373.479 442.149 375.727 438.477 373.607Z" fill="#D6D8E5"/>
<path d="M441.526 361.295L173.068 206.564L173.16 8.28083C173.16 6.25175 174.588 5.42915 176.347 6.45283L438.477 157.5C439.401 158.102 440.17 158.912 440.724 159.864C441.277 160.816 441.599 161.885 441.663 162.984L441.526 361.295Z" fill="white"/>
<path d="M279.034 93.3011L193.031 43.744C192.634 43.4584 192.309 43.084 192.084 42.6506C191.858 42.2173 191.737 41.7372 191.731 41.2488V35.2621C191.731 34.3481 192.307 33.8637 193.031 34.275L279.034 83.8321C279.429 84.1192 279.753 84.494 279.978 84.927C280.204 85.3599 280.326 85.8393 280.334 86.3273V92.314C280.334 93.2737 279.748 93.7215 279.034 93.3011Z" fill="#E9EAF2"/>
<path d="M256.947 94.7361L193.425 58.1304C193.026 57.8477 192.7 57.4753 192.472 57.0434C192.245 56.6115 192.123 56.1322 192.115 55.6443V52.6647C192.115 51.7507 192.701 51.2571 193.425 51.6775L256.947 88.2832C257.34 88.5694 257.661 88.9431 257.883 89.3747C258.106 89.8064 258.224 90.2839 258.229 90.7693V93.749C258.229 94.7087 257.661 95.1565 256.947 94.7361Z" fill="#E9EAF2"/>
<path d="M256.947 106.024L193.425 69.464C193.026 69.1813 192.7 68.809 192.472 68.3771C192.245 67.9451 192.123 67.4658 192.115 66.9779V63.98C192.115 63.066 192.701 62.5724 193.425 62.9929L256.947 99.626C257.343 99.9102 257.667 100.283 257.893 100.715C258.119 101.147 258.24 101.625 258.247 102.112V105.092C258.229 106.024 257.661 106.454 256.947 106.024Z" fill="#E9EAF2"/>
<path d="M244.961 110.429L193.425 80.7245C193.026 80.4418 192.7 80.0694 192.472 79.6375C192.245 79.2056 192.123 78.7263 192.115 78.2384V75.2587C192.115 74.3447 192.701 73.8512 193.425 74.2716L244.961 103.967C245.359 104.253 245.684 104.627 245.912 105.06C246.139 105.493 246.262 105.974 246.27 106.463V109.442C246.27 110.402 245.684 110.841 244.961 110.429Z" fill="#8C50FF"/>
<path d="M279.034 211.902L193.031 162.345C192.634 162.059 192.309 161.685 192.084 161.251C191.858 160.818 191.737 160.338 191.731 159.849V153.863C191.731 152.903 192.307 152.464 193.031 152.876L279.034 202.433C279.429 202.72 279.753 203.095 279.978 203.528C280.204 203.961 280.326 204.44 280.334 204.928V210.915C280.334 211.874 279.748 212.313 279.034 211.902Z" fill="#E9EAF2"/>
<path d="M256.947 213.337L193.425 176.777C193.026 176.492 192.701 176.117 192.473 175.684C192.246 175.251 192.123 174.771 192.115 174.282V171.302C192.115 170.342 192.701 169.903 193.425 170.324L256.947 206.884C257.343 207.171 257.666 207.546 257.891 207.979C258.117 208.412 258.239 208.891 258.247 209.379V212.359C258.229 213.309 257.661 213.748 256.947 213.337Z" fill="#E9EAF2"/>
<path d="M256.947 224.634L193.425 188.028C193.027 187.744 192.702 187.372 192.474 186.94C192.247 186.508 192.124 186.03 192.115 185.542V182.562C192.115 181.648 192.701 181.164 193.425 181.584L256.947 218.144C257.343 218.432 257.666 218.806 257.891 219.239C258.117 219.672 258.239 220.152 258.247 220.64V223.619C258.229 224.606 257.661 225.045 256.947 224.634Z" fill="#E9EAF2"/>
<path d="M244.961 229.021L193.425 199.325C193.026 199.04 192.7 198.666 192.472 198.233C192.245 197.8 192.123 197.319 192.115 196.83V193.85C192.115 192.891 192.701 192.452 193.425 192.872L244.961 222.568C245.359 222.853 245.684 223.227 245.912 223.661C246.139 224.094 246.262 224.574 246.27 225.063V228.043C246.27 229.003 245.684 229.414 244.961 229.021Z" fill="#8C50FF"/>
<path d="M302.046 226.617C302.046 226.617 311.532 234.569 325.231 223.711C335.011 215.704 343.756 220.274 348.628 223.016C353.499 225.758 360.532 227.44 373.929 251.588C373.929 251.588 378.287 259.156 385.485 263.305C392.682 267.455 396.144 265.426 401.803 256.907C407.462 248.389 411.17 238.956 421.573 245.116V330.749L301.112 261.404V226.06L302.046 226.617Z" fill="#F5F6FF"/>
<path d="M275.866 190.313L193.452 142.785C193.054 142.5 192.728 142.126 192.501 141.693C192.273 141.259 192.151 140.779 192.143 140.29V92.8258C192.143 91.9118 192.729 91.4274 193.452 91.8387L275.866 139.367C276.264 139.652 276.59 140.026 276.817 140.459C277.044 140.893 277.167 141.373 277.175 141.862V189.344C277.175 190.286 276.589 190.724 275.866 190.313Z" fill="#E9EAF2"/>
<path d="M301.112 224.625V261.386L421.573 330.795V245.162" stroke="#E9EAF2" stroke-width="0.31" stroke-miterlimit="10"/>
<path d="M348.454 223.446V288.577" stroke="#E9EAF2" stroke-width="0.31" stroke-miterlimit="10"/>
<path d="M385.311 264.64V309.809" stroke="#E9EAF2" stroke-width="0.31" stroke-miterlimit="10"/>
<path d="M301.112 226.06C322.484 239.285 325.506 209.388 348.792 222.806C372.079 236.223 368.865 253.708 386.053 263.616C403.24 273.524 403.643 234.825 421.573 245.162" stroke="#E9EAF2" stroke-width="1.53" stroke-miterlimit="10"/>
<path d="M350.458 226.932C351.566 226.293 351.564 224.22 350.454 222.301C349.344 220.381 347.546 219.343 346.438 219.982C345.33 220.62 345.331 222.694 346.441 224.613C347.552 226.532 349.35 227.57 350.458 226.932Z" fill="#8C50FF"/>
<path d="M425.264 249.64C426.377 249.002 426.379 246.921 425.269 244.993C424.159 243.065 422.357 242.02 421.244 242.659C420.13 243.297 420.128 245.378 421.238 247.306C422.348 249.234 424.15 250.279 425.264 249.64Z" fill="#8C50FF"/>
<path d="M388.849 268.39C389.962 267.752 389.964 265.671 388.854 263.743C387.744 261.815 385.942 260.77 384.829 261.408C383.716 262.047 383.713 264.128 384.823 266.056C385.933 267.983 387.736 269.029 388.849 268.39Z" fill="#8C50FF"/>
<path d="M303.122 229.543C304.23 228.904 304.228 226.831 303.118 224.912C302.008 222.993 300.21 221.954 299.102 222.593C297.994 223.232 297.995 225.305 299.105 227.224C300.215 229.143 302.014 230.181 303.122 229.543Z" fill="#8C50FF"/>
<path d="M304.509 162.902L299.573 160.06C299.175 159.775 298.849 159.4 298.622 158.967C298.395 158.534 298.272 158.054 298.264 157.564V133.8C298.264 132.841 298.85 132.402 299.573 132.813L304.509 135.665C304.906 135.94 305.234 136.304 305.466 136.728C305.698 137.151 305.828 137.623 305.846 138.105V161.915C305.846 162.875 305.232 163.314 304.509 162.902Z" fill="#E9EAF2"/>
<path d="M315.919 169.456L310.983 166.604C310.584 166.321 310.258 165.949 310.031 165.517C309.803 165.085 309.681 164.606 309.673 164.118V115.676C309.673 114.762 310.259 114.268 310.983 114.689L315.919 117.54C316.317 117.826 316.642 118.2 316.87 118.633C317.097 119.066 317.22 119.547 317.228 120.036V168.478C317.191 169.428 316.605 169.867 315.919 169.456Z" fill="#8C50FF"/>
<path d="M338.619 182.553L333.683 179.711C333.284 179.427 332.957 179.053 332.729 178.62C332.501 178.186 332.38 177.705 332.374 177.215V133.49C332.374 132.53 332.96 132.091 333.683 132.503L338.619 135.345C339.017 135.63 339.343 136.004 339.57 136.438C339.798 136.871 339.92 137.351 339.928 137.84V181.575C339.928 182.535 339.342 182.974 338.619 182.553Z" fill="#E9EAF2"/>
<path d="M349.992 189.107L345.056 186.264C344.658 185.979 344.332 185.605 344.105 185.171C343.878 184.738 343.755 184.258 343.747 183.769V147.538C343.747 146.624 344.333 146.139 345.056 146.551L349.992 149.402C350.39 149.685 350.717 150.057 350.944 150.489C351.172 150.921 351.294 151.401 351.301 151.889V188.119C351.301 189.088 350.715 189.527 349.992 189.107Z" fill="#8C50FF"/>
<path d="M372.637 202.159L367.693 199.316C367.296 199.03 366.971 198.656 366.745 198.223C366.52 197.789 366.399 197.309 366.392 196.821V178.915C366.392 177.947 366.969 177.508 367.693 177.928L372.637 180.771C373.033 181.058 373.356 181.433 373.582 181.866C373.807 182.299 373.929 182.778 373.938 183.266V201.171C373.938 202.131 373.352 202.57 372.637 202.159Z" fill="#E9EAF2"/>
<path d="M384.001 208.712L379.102 205.86C378.704 205.578 378.378 205.205 378.15 204.773C377.923 204.341 377.8 203.862 377.793 203.374V142.474C377.793 141.505 378.379 141.067 379.102 141.487L384.038 144.33C384.437 144.614 384.763 144.988 384.99 145.422C385.218 145.855 385.34 146.336 385.347 146.825V207.725C385.311 208.685 384.725 209.123 384.001 208.712Z" fill="#8C50FF"/>
<path d="M411.738 224.698L406.802 221.846C406.404 221.563 406.078 221.191 405.85 220.759C405.623 220.327 405.5 219.848 405.493 219.36V201.446C405.493 200.486 406.079 200.047 406.802 200.458L411.738 203.31C412.138 203.594 412.465 203.968 412.692 204.401C412.92 204.835 413.042 205.316 413.047 205.805V223.711C413.047 224.67 412.461 225.109 411.738 224.698Z" fill="#E9EAF2"/>
<path d="M423.111 231.242L418.175 228.39C417.776 228.107 417.449 227.733 417.221 227.299C416.994 226.866 416.872 226.385 416.866 225.895V202.131C416.866 201.171 417.452 200.733 418.175 201.144L423.111 203.987C423.509 204.272 423.835 204.646 424.062 205.079C424.29 205.512 424.412 205.993 424.421 206.482V230.291C424.421 231.242 423.835 231.662 423.111 231.242Z" fill="#8C50FF"/>
<path opacity="0.4" d="M96.0667 455.172L55.1896 431.646C50.5561 428.968 51.133 424.334 56.4899 421.226L77.2398 409.262C82.5875 406.182 90.6549 405.816 95.3158 408.558L136.193 432.121C140.826 434.79 140.25 439.433 134.893 442.531L114.143 454.496C108.795 457.53 100.728 457.914 96.0667 455.172Z" fill="#D6D8E5"/>
<path d="M157.501 425.805V368.854L70.2163 359.047V416.354C70.1614 418.109 71.1321 419.782 73.3297 421.025L114.207 444.588C118.84 447.257 126.935 446.919 132.283 443.838L153.033 431.874C156.045 430.138 157.547 427.898 157.456 425.805H157.501Z" fill="#D6D8E5"/>
<path d="M157.447 375.069V368.854H150.734L113.456 347.366C108.823 344.688 100.728 345.026 95.38 348.106L74.63 360.116C74.261 360.325 73.9034 360.554 73.5587 360.801L70.2163 359.092C70.2163 359.092 70.2163 365.664 70.2163 365.883C70.1614 367.62 71.1321 369.293 73.3297 370.536L114.207 394.089C118.84 396.758 126.935 396.42 132.283 393.34L153.033 381.385C156.137 379.557 157.611 377.272 157.437 375.115L157.447 375.069Z" fill="#EDF0F9"/>
<path d="M114.207 387.271L73.3297 363.717C68.6963 361.048 69.2732 356.405 74.63 353.298L95.3799 341.342C100.728 338.253 108.823 337.924 113.456 340.593L154.333 364.147C158.967 366.816 158.39 371.459 153.033 374.566L132.283 386.521C126.935 389.611 118.84 389.94 114.207 387.271Z" fill="#E2E5F2"/>
<path d="M104.995 355.116V352.85H103.603L103.173 352.575C101.803 351.882 100.29 351.52 98.7543 351.52C97.2189 351.52 95.7052 351.882 94.336 352.575C94.0743 352.728 93.8262 352.902 93.5943 353.096L92.5046 352.85V355.116C92.5558 355.665 92.7524 356.191 93.0742 356.639C93.3961 357.087 93.8316 357.442 94.336 357.666C95.7052 358.36 97.2189 358.722 98.7543 358.722C100.29 358.722 101.803 358.36 103.173 357.666C103.677 357.443 104.112 357.088 104.433 356.64C104.753 356.191 104.947 355.665 104.995 355.116Z" fill="#6E48E5"/>
<path d="M98.7497 356.451C102.199 356.451 104.995 354.839 104.995 352.85C104.995 350.861 102.199 349.249 98.7497 349.249C95.3007 349.249 92.5046 350.861 92.5046 352.85C92.5046 354.839 95.3007 356.451 98.7497 356.451Z" fill="#8C50FF"/>
<path d="M120.489 364.686C120.148 365.448 119.557 366.07 118.813 366.45C117.444 367.139 115.932 367.498 114.399 367.498C112.866 367.498 111.354 367.139 109.985 366.45C109.242 366.07 108.65 365.448 108.31 364.686C107.852 363.516 108.42 362.264 109.985 361.35C111.354 360.661 112.866 360.301 114.399 360.301C115.932 360.301 117.444 360.661 118.813 361.35C120.388 362.218 120.946 363.47 120.489 364.686Z" fill="#5E42D3"/>
<path d="M120.489 364.686C120.148 365.448 119.557 366.07 118.813 366.45C117.444 367.139 115.932 367.498 114.399 367.498C112.866 367.498 111.354 367.139 109.985 366.45C109.538 366.418 109.118 366.218 108.812 365.889C108.507 365.561 108.336 365.13 108.336 364.681C108.336 364.233 108.507 363.802 108.812 363.473C109.118 363.145 109.538 362.945 109.985 362.913C111.354 362.224 112.866 361.864 114.399 361.864C115.932 361.864 117.444 362.224 118.813 362.913C119.558 363.295 120.15 363.921 120.489 364.686Z" fill="#8C50FF"/>
<path d="M135.167 372.793V370.526H133.775L133.345 370.252C131.976 369.559 130.462 369.197 128.927 369.197C127.391 369.197 125.878 369.559 124.509 370.252C124.249 370.405 124.001 370.576 123.767 370.764L122.677 370.526V372.793C122.728 373.342 122.925 373.868 123.247 374.316C123.569 374.764 124.004 375.119 124.509 375.343C125.878 376.037 127.391 376.398 128.927 376.398C130.462 376.398 131.976 376.037 133.345 375.343C133.85 375.12 134.285 374.765 134.605 374.317C134.926 373.868 135.12 373.342 135.167 372.793Z" fill="#6E48E5"/>
<path d="M128.922 374.128C132.371 374.128 135.167 372.515 135.167 370.526C135.167 368.538 132.371 366.925 128.922 366.925C125.473 366.925 122.677 368.538 122.677 370.526C122.677 372.515 125.473 374.128 128.922 374.128Z" fill="#8C50FF"/>
<path d="M59.7956 345.958C59.5484 348.088 57.0485 357.283 57.543 360.436C58.0374 363.589 66.7916 368.854 66.7916 368.854L68.0003 363.461L63.1837 358.745L64.484 349.815L59.7956 345.958Z" fill="#FFCEA9"/>
<path d="M66.526 336.9C65.6806 336.507 64.7198 336.438 63.8266 336.706C62.9333 336.974 62.17 337.56 61.682 338.354C60.4 340.474 59.0722 347.731 58.9348 348.974C58.9348 348.974 60.7663 351.451 63.431 351.04L66.526 336.9Z" fill="#EDEDED"/>
<path d="M76.4615 439.415C78.3559 439.935 80.3794 439.689 82.093 438.729C83.4483 438.775 90.8197 435.622 91.8178 438.263C92.7335 440.585 89.5011 442.723 87.7979 443.135C84.0801 444.049 81.333 445.877 79.8313 446.206C78.7232 446.434 77.2764 446.59 76.3974 445.712C75.326 444.67 75.4175 440.795 76.4615 439.415Z" fill="#38226D"/>
<path d="M79.8313 445.557C81.333 445.246 84.0801 443.391 87.7979 442.495C89.2264 442.147 91.6896 440.594 91.9369 438.729C92.2665 440.859 89.3912 442.751 87.7979 443.135C84.0801 444.049 81.333 445.877 79.8313 446.206C78.7233 446.434 77.2764 446.589 76.3974 445.712C76.1566 445.455 75.9862 445.14 75.9029 444.798C76.4522 445.223 77.094 445.513 77.7764 445.645C78.4588 445.777 79.1627 445.747 79.8313 445.557Z" fill="#9C73FF"/>
<path d="M64.5207 434.059C66.4139 434.582 68.4374 434.339 70.1523 433.382C71.5075 433.382 78.8698 430.275 79.8771 432.916C80.7928 435.229 77.5603 437.367 75.8571 437.788C72.1393 438.702 69.3831 440.53 67.8905 440.85C66.7733 441.078 65.3356 441.234 64.4474 440.365C63.3852 439.314 63.4768 435.439 64.5207 434.059Z" fill="#38226D"/>
<path d="M67.8904 440.21C69.383 439.89 72.1393 438.044 75.8571 437.139C77.2856 436.801 79.7488 435.238 79.9961 433.382C80.3257 435.512 77.4504 437.395 75.8571 437.788C72.1393 438.702 69.383 440.53 67.8904 440.85C66.7733 441.078 65.3356 441.233 64.4474 440.365C64.2152 440.103 64.0489 439.79 63.9621 439.451C64.5131 439.873 65.1549 440.161 65.8366 440.293C66.5184 440.424 67.2216 440.396 67.8904 440.21Z" fill="#9C73FF"/>
<path d="M64.3741 414.088C64.6914 411.358 65.2585 408.662 66.0682 406.035C66.0682 406.035 65.5646 399.089 65.3082 392.499C65.0243 385.022 62.4237 378.442 64.4749 372.482L87.5781 377.61C87.5781 377.61 86.1863 407.415 85.8749 411.017C85.7073 413.826 85.3617 416.623 84.8402 419.389C83.7871 425.174 82.0931 438.939 82.0931 438.939C79.6573 440.356 76.4431 439.57 76.4431 439.57C76.4431 439.57 76.6263 422.204 76.782 418C76.9743 412.909 77.1299 413.292 77.1299 413.292L76.3607 400.615L75.8662 394.309C75.8662 394.309 75.2253 398.934 74.804 403.074C74.4469 406.675 73.577 409.938 72.5972 416.647C71.7547 422.469 70.3812 434.168 70.3812 434.168C67.9362 435.585 64.6214 434.406 64.6214 434.406C64.6214 434.406 63.7148 419.133 64.3741 414.088Z" fill="#8C50FF"/>
<path d="M67.7623 337.019C69.5296 337.111 70.839 337.558 71.0588 337.019C71.2422 336.113 71.3737 335.198 71.4525 334.277C71.2511 333.765 71.0771 333.217 71.0771 333.217C68.8703 331.864 68.1743 329.479 67.8813 326.7C67.3868 321.956 69.9508 317.807 74.7033 317.313C79.1719 316.847 82.4685 319.982 83.3384 324.287C83.8146 326.408 84.7577 330.429 83.4849 333.921C82.7707 335.877 81.855 337.431 80.9393 337.732C80.0533 337.703 79.1697 337.624 78.2929 337.494C78.2929 337.494 78.0548 338.811 77.89 339.652C77.7251 340.492 77.7892 340.949 79.4741 341.982C81.159 343.015 76.9193 345.181 74.1722 344.971C71.4251 344.761 68.2934 343.097 67.4326 341.315C66.4528 339.313 66.5352 336.964 67.7623 337.019Z" fill="#FFCEA9"/>
<path d="M70.2896 337.266C69.8043 338.482 71.0405 340.008 74.3462 340.995C77.6519 341.982 77.954 340.703 77.954 340.703C80.1499 341.684 82.2898 342.785 84.364 344.002C86.3511 345.391 87.2301 349.395 87.4957 356.158C87.807 363.982 87.8345 375.59 87.569 377.592C87.569 377.592 83.9061 381.248 79.117 380.891C74.3279 380.535 66.3978 376.321 64.4657 373.076C64.5206 366.212 65.3265 365.097 64.2093 361.149C61.6636 352.1 60.3267 348.353 61.5629 342.384C62.5793 337.421 64.0078 336.809 65.9766 336.855C67.4207 336.913 68.8606 337.05 70.2896 337.266Z" fill="#F4F4F4"/>
<path d="M94.9679 362.648C91.067 363.626 90.1604 361.176 89.6476 359.147C88.4023 354.23 87.743 349.797 86.8181 347.009C85.7284 343.719 84.5838 343.198 82.9904 342.558C81.159 341.799 79.4924 343.39 80.1151 347.576C80.8835 352.433 82.0785 357.214 83.6864 361.862C84.1717 363.388 85.2522 366.103 86.8822 367.419C88.8876 369.037 91.9186 368.973 96.4971 367.839C98.4476 367.346 100.59 366.185 104.281 364.467C105.27 364.01 106.039 363.699 107.943 362.812C109.856 361.96 111.531 360.655 112.824 359.01C113.822 357.566 113.95 356.89 113.74 356.561C113.529 356.231 113.035 356.241 112.504 356.853C111.733 357.876 110.784 358.752 109.702 359.44C109.702 359.44 110.929 358.169 111.597 357.347C112.194 356.615 112.69 355.806 113.071 354.943C113.419 354.102 112.696 352.959 112.156 353.563C111.615 354.166 111.341 354.769 110.324 355.976C109.785 356.62 109.17 357.197 108.493 357.694C109.118 356.851 109.672 355.959 110.15 355.025C110.582 354.296 110.794 353.458 110.764 352.612C110.764 352.173 110.114 351.652 109.528 352.484C108.962 353.627 108.261 354.698 107.44 355.674C106.524 356.588 105.792 357.118 105.773 356.862C105.755 356.606 106.304 356.104 106.625 355.034C106.945 353.965 106.625 352.822 106.03 352.703C105.434 352.585 105.553 352.612 105.114 353.617C104.458 354.649 103.868 355.72 103.347 356.826C103.04 357.855 102.491 358.795 101.744 359.568C100.783 360.591 98.6673 361.715 94.9679 362.648Z" fill="#FFCEA9"/>
<path d="M81.5436 341.882C84.1442 341.498 85.9848 342.668 87.1294 346.598C88.2741 350.528 89.0799 353.718 89.0799 353.718C88.0527 355.2 86.4964 356.233 84.7303 356.606C81.6169 357.365 80.4997 355.875 80.4997 355.875C80.4997 355.875 79.639 351.762 79.0987 348.956C78.5584 346.15 78.3295 342.357 81.5436 341.882Z" fill="#EDEDED"/>
<path d="M83.1736 323.675C83.1736 323.675 87.2759 317.441 78.3753 316.171C71.9653 315.257 67.8355 319.37 67.3868 323.839C66.9289 328.108 69.5662 332.541 71.4617 334.295C73.3302 334.77 75.3088 334.532 77.0109 333.628C77.1199 332.468 77.1627 331.302 77.1391 330.137C77.1391 330.137 73.9799 323.556 83.1736 323.675Z" fill="#3A2C6D"/>
<path opacity="0.4" d="M350.331 443.107C362.787 443.107 372.885 437.288 372.885 430.11C372.885 422.932 362.787 417.113 350.331 417.113C337.875 417.113 327.777 422.932 327.777 430.11C327.777 437.288 337.875 443.107 350.331 443.107Z" fill="#D6D8E5"/>
<path d="M350.138 304.701C351.054 303.211 358.197 302.224 360.541 308.247C361.457 310.532 361.292 316.373 362.034 320.038C362.775 323.703 364.524 325.787 365.156 328.757C365.788 331.728 364.762 336.718 357.574 337.605C350.386 338.491 344.864 335.969 343.17 333.684C341.476 331.399 341.439 326.536 343.17 323.922C344.901 321.308 346.274 319.197 346.228 315.797L350.138 304.701Z" fill="#3A2C6D"/>
<path d="M354.845 303.667C354.845 303.667 349.479 302.123 346.228 305.011C345.158 305.999 344.378 307.26 343.974 308.659C343.571 310.057 343.559 311.539 343.939 312.944C344.37 314.635 345.239 316.939 346.586 317.067C347.932 317.195 354.845 303.667 354.845 303.667Z" fill="#3A2C6D"/>
<path d="M356.896 318.264C356.896 318.264 356.539 324.223 356.649 324.662C356.759 325.101 358.993 325.576 359.625 326.051C360.257 326.526 356.374 332.623 354.406 333.519C352.437 334.414 346.329 332.12 345.899 329.095C345.514 326.298 347.648 324.132 348.472 323.373C349.032 323.32 349.595 323.305 350.157 323.327L350.34 320.439C353.014 319.589 356.896 318.264 356.896 318.264Z" fill="#FFCEA9"/>
<path d="M342.474 329.534C342.474 329.36 341.558 329.844 341.558 329.853C341.558 329.863 341.128 345.163 340.377 346.552C338.463 349.797 333.399 355.299 333.271 355.912C332.896 357.74 333.976 356.104 335.716 355.912C336.696 355.793 342.456 349.98 343.747 348.654L343.829 348.7V348.554L343.994 348.38C344.027 347.967 344.027 347.551 343.994 347.137C346.421 330.512 343.472 329.406 342.474 329.534Z" fill="#FFCEA9"/>
<path d="M357.711 325.247C359.396 325.503 361.31 326.399 361.576 327.313C362.269 330.62 362.105 334.049 361.099 337.275C359.644 341.114 358.664 343.554 357.821 345.209C357.821 345.209 350.56 348.316 344.699 344.688C344.699 344.688 344.296 340.575 344.269 338.372C338.866 333.665 343.49 327.861 348.069 323.355C348.617 323.305 349.169 323.305 349.717 323.355C349.717 323.355 345.633 328.181 348.472 330.923C354.561 329.04 355.77 326.298 357.711 325.247Z" fill="#F4F4F4"/>
<path d="M345.734 310.87C346.329 307.04 349.104 304.143 353.06 304.371C354.654 304.457 356.18 305.041 357.423 306.041C358.667 307.041 359.563 308.405 359.987 309.941C360.41 311.478 360.338 313.108 359.782 314.602C359.226 316.095 358.213 317.377 356.887 318.264C356.751 318.844 356.545 319.406 356.274 319.937C354.873 321.563 351.146 322.596 349.919 322.615C348.857 322.615 347.941 321.637 346.943 319.991C344.873 316.564 345.404 312.762 345.734 310.87Z" fill="#FFCEA9"/>
<path d="M354.296 304.444C357.043 304.983 359.351 305.769 360.111 308.484C360.623 310.367 361.301 313.968 360.66 315.44L360.257 316.527L356.896 318.264C356.896 318.264 355.321 316.957 355.816 313.127C355.797 312.611 355.632 312.11 355.34 311.683C355.13 311.32 354.972 310.929 354.873 310.522C354.474 309.488 353.694 308.644 352.693 308.164C350.193 306.766 346.531 307.972 346.018 308.484C346.726 306.967 347.934 305.738 349.441 305.002C350.947 304.267 352.661 304.07 354.296 304.444Z" fill="#3A2C6D"/>
<path d="M359.351 425.641C357.94 426.783 355.752 425.997 355.688 426.098C354.047 427.502 352.328 428.814 350.541 430.028C349.626 430.713 348.298 431.636 348.545 432.953C348.985 435.32 352.776 434.598 354.204 433.867C355.633 433.135 356.805 431.947 358.16 431.125C359.122 430.531 360.074 430.211 360.23 429.004C360.275 428.246 359.598 425.613 359.351 425.641Z" fill="#38226D"/>
<path d="M360.175 428.492C359.982 429.662 359.048 429.982 358.087 430.576C356.713 431.426 355.505 432.66 354.076 433.382C352.648 434.104 349.452 434.707 348.527 433.026C349.03 435.302 352.757 434.589 354.168 433.867C355.578 433.145 356.768 431.947 358.123 431.125C359.085 430.531 360.037 430.211 360.193 429.004C360.2 428.833 360.194 428.662 360.175 428.492Z" fill="#9C73FF"/>
<path d="M349.488 423.676C348.197 424.727 346.256 424.133 346.164 424.233C344.66 425.509 343.089 426.705 341.458 427.816C340.652 428.447 339.397 429.287 339.626 430.494C340.029 432.66 343.5 431.993 344.818 431.335C346.137 430.677 347.19 429.571 348.435 428.803C349.351 428.255 350.184 427.971 350.322 426.856C350.413 426.18 349.717 423.648 349.488 423.676Z" fill="#38226D"/>
<path d="M350.312 426.408C350.139 427.478 349.278 427.77 348.399 428.31C347.144 429.096 346.036 430.22 344.736 430.887C343.436 431.554 340.505 432.103 339.654 430.558C340.112 432.642 343.527 431.993 344.827 431.335C346.128 430.677 347.199 429.571 348.444 428.803C349.36 428.255 350.193 427.971 350.331 426.856C350.343 426.707 350.336 426.556 350.312 426.408Z" fill="#9C73FF"/>
<path d="M341.906 358.416C342.529 353.572 344.315 346.534 344.315 346.534C346.003 347.321 347.829 347.771 349.69 347.859C352.419 347.85 355.141 347.587 357.821 347.073C358.695 348.599 359.652 350.076 360.687 351.497C362.088 353.435 364.808 357.676 364.149 365.088C363.718 369.932 360.999 390.506 360.999 390.506C362.058 393.965 362.622 397.556 362.675 401.173C362.418 405.474 361.848 409.75 360.971 413.969L359.35 425.641C359.35 425.641 357.189 427.204 355.688 426.098L355.88 414.673C355.697 411.876 355.413 407.754 355.239 405.121C354.946 400.826 354.177 394.016 353.957 392.325C353.737 390.634 353.188 387.646 352.922 384.319C352.657 380.992 351.411 364.055 351.411 364.055L351.237 367.227C351.237 367.227 351.063 372.373 350.322 378.725C349.58 385.077 349.324 387.865 349.324 387.865C350.026 389.146 350.518 390.532 350.779 391.969C350.908 393.34 352.474 404.198 351.54 409.719L349.607 423.767C349.128 424.099 348.577 424.312 347.999 424.388C347.42 424.465 346.832 424.402 346.283 424.206L345.148 410.048C344.388 404.664 342.776 393.248 342.529 391.768C341.98 388.777 341.655 385.749 341.558 382.71C341.155 376.568 341.284 363.251 341.906 358.416Z" fill="#FFCEA9"/>
<path d="M357.821 345.209L361.997 353.572C361.997 353.572 368.407 362.876 361.768 386.796L363.004 394.181C363.004 394.181 350.514 402.178 342.154 394.181C342.154 394.181 339.26 372.071 340.798 361.88C341.659 356.023 342.96 350.24 344.69 344.578C344.69 344.578 346.741 346.836 357.272 345.346" fill="#8C50FF"/>
<path d="M348.069 323.355C348.069 323.355 344.754 322.34 341.229 329.68L342.547 330.466C342.547 330.466 346.018 325.238 348.069 323.355Z" fill="#EDEDED"/>
<path d="M322.182 363.123L336.449 354.851L346.686 360.747L332.42 369.027L322.182 363.123Z" fill="#F4F4F4"/>
<path d="M334.608 355.455C333.713 355.544 332.848 355.825 332.072 356.277C331.786 356.526 331.48 356.749 331.156 356.944C331.019 357.008 330.881 357.1 330.735 357.164C330.517 357.244 330.319 357.372 330.158 357.538C329.998 357.773 329.912 358.05 329.911 358.334C329.838 358.673 329.819 359.021 329.856 359.366C329.984 359.878 330.515 359.833 330.771 359.476C330.911 359.298 330.991 359.081 331 358.855C331.008 358.639 331.067 358.428 331.172 358.238C331.277 358.049 331.425 357.888 331.605 357.767L335.011 355.656C334.972 355.586 334.912 355.529 334.84 355.494C334.769 355.458 334.688 355.444 334.608 355.455Z" fill="#FFCEA9"/>
<path d="M361.75 329.954C361.283 328.016 359.763 328.638 358.453 327.504C355.422 331.791 357.437 343.381 357.849 344.615L346.201 352.027L345.413 352.511C344.088 353.381 342.623 354.018 341.082 354.394C339.919 354.531 339.315 356.167 338.069 356.314C337.974 356.317 337.882 356.348 337.805 356.404C337.728 356.459 337.668 356.535 337.634 356.624C337.6 356.713 337.593 356.809 337.613 356.902C337.633 356.995 337.681 357.079 337.749 357.145C338.243 357.621 339.58 357.228 340.496 356.167C340.492 356.192 340.492 356.216 340.496 356.241C340.504 356.41 340.555 356.575 340.644 356.719C340.734 356.863 340.86 356.982 341.009 357.063C341.076 357.104 341.151 357.129 341.229 357.136C341.228 357.214 341.251 357.29 341.293 357.356C341.359 357.49 341.457 357.606 341.578 357.694C341.699 357.781 341.84 357.838 341.989 357.858C342.054 358.046 342.179 358.207 342.344 358.317C342.509 358.428 342.706 358.482 342.904 358.471C343.172 358.457 343.424 358.343 343.61 358.151C344.603 357.773 345.48 357.143 346.155 356.323C346.752 355.704 347.381 355.118 348.042 354.568C351.201 353.206 360.678 349.166 361.1 348.59C361.759 347.722 362.427 332.696 361.75 329.954Z" fill="#FFCEA9"/>
<path d="M362.812 335.155C362.812 335.155 359.085 336.818 355.99 335.264L356.439 329.442C356.439 329.442 356.484 326.316 359.277 326.006C362.07 325.695 363.535 329.268 362.812 335.155Z" fill="#EDEDED"/>
</g>
<defs>
<clipPath id="clip0">
<rect width="448" height="457" fill="white"/>
</clipPath>
</defs>
</svg>
