<svg width="40" height="40" viewBox="0 0 40 40" fill="none" xmlns="http://www.w3.org/2000/svg">
<path d="M40 4.73812C38.8861 6.77777 37.5196 8.51647 35.9003 9.95423C35.9163 10.3398 35.9243 10.7757 35.9243 11.2617C35.9243 13.9623 35.6045 16.6662 34.9648 19.3733C34.3251 22.0805 33.348 24.6717 32.0335 27.1471C30.7189 29.6224 29.1531 31.8153 27.3359 33.7258C25.5187 35.6363 23.3344 37.1596 20.7829 38.2958C18.2314 39.4319 15.4969 40 12.5794 40C8.0261 40 3.83297 38.4868 0 35.4603C0.680307 35.5535 1.33278 35.6001 1.95742 35.6001C5.76132 35.6001 9.15881 34.1577 12.1499 31.273C10.3763 31.233 8.78792 30.5609 7.38474 29.2567C5.98156 27.9525 5.01593 26.286 4.48784 24.2571C5.00982 24.3795 5.525 24.4407 6.03338 24.4407C6.76515 24.4407 7.48521 24.3232 8.19355 24.0883C6.30079 23.6216 4.73059 22.4611 3.48294 20.6067C2.23533 18.7523 1.61153 16.612 1.61153 14.1857V14.0607C2.77331 14.8526 4.01254 15.2738 5.3292 15.3244C4.20795 14.4042 3.31896 13.2042 2.66224 11.7244C2.00548 10.2447 1.6771 8.64331 1.6771 6.92035C1.6771 5.10321 2.04699 3.4111 2.78675 1.84404C4.84509 4.95356 7.3392 7.43878 10.2691 9.29971C13.199 11.1607 16.3422 12.1942 19.6988 12.4003C19.5556 11.6658 19.4839 10.8993 19.4837 10.1009C19.4837 7.31298 20.2851 4.93253 21.8879 2.95952C23.4908 0.986506 25.4245 0 27.6892 0C30.0602 0 32.0573 1.06281 33.6805 3.18844C35.5352 2.7362 37.2717 1.91821 38.8902 0.734479C38.2666 3.15021 37.0651 5.01378 35.2857 6.32519C36.9212 6.08594 38.4926 5.55691 39.9999 4.73812H40Z" fill="white"/>
</svg>
