<svg width="40" height="31" viewBox="0 0 40 31" fill="none" xmlns="http://www.w3.org/2000/svg">
<path d="M39.1652 5.67654C38.9375 4.76908 38.491 3.94153 37.8705 3.27671C37.25 2.61189 36.4772 2.13313 35.6295 1.88832C32.5089 0.990235 20 0.990234 20 0.990234C20 0.990234 7.49107 0.990234 4.37054 1.88355C3.52241 2.12755 2.74922 2.60606 2.1286 3.271C1.50798 3.93594 1.06178 4.76391 0.834821 5.67176C-1.70299e-07 9.01571 0 15.9902 0 15.9902C0 15.9902 -1.70299e-07 22.9648 0.834821 26.3039C1.29464 28.1479 2.65179 29.6001 4.37054 30.0921C7.49107 30.9902 20 30.9902 20 30.9902C20 30.9902 32.5089 30.9902 35.6295 30.0921C37.3527 29.6001 38.7054 28.1479 39.1652 26.3039C40 22.9648 40 15.9902 40 15.9902C40 15.9902 40 9.01571 39.1652 5.67654ZM16.0268 22.3915V9.58896L26.3839 15.9425L16.0268 22.3915Z" fill="white"/>
</svg>
